<svg width="30" height="30" viewBox="0 0 30 30" fill="none" xmlns="http://www.w3.org/2000/svg">
<path d="M15 1.20001C7.38678 1.20001 1.2 7.38679 1.2 15C1.2 22.6132 7.38678 28.8 15 28.8C22.6132 28.8 28.8 22.6132 28.8 15C28.8 7.38679 22.6132 1.20001 15 1.20001ZM15 2.40001C21.9644 2.40001 27.6 8.03563 27.6 15C27.6 15.0429 27.5969 15.085 27.5965 15.1278C27.2127 15.0924 26.7693 15.0587 26.2055 15.0387C25.4083 15.0104 24.4034 15.0186 23.264 15.075C23.3063 14.7808 23.3359 14.4825 23.3367 14.1762C23.3948 13.0526 23.0175 12.0015 22.4039 11.0731C22.5521 10.5609 22.726 9.90913 22.7695 9.16993C22.8191 8.32735 22.7464 7.39309 22.0699 6.76171L21.8965 6.60001H21.6598C20.0499 6.60001 18.948 7.27393 18.2742 7.80823C17.3013 7.43161 16.2073 7.20001 15 7.20001C13.7858 7.20001 12.6813 7.43485 11.6684 7.81057C10.9949 7.27603 9.89208 6.60001 8.28048 6.60001H8.04492L7.87146 6.76057C7.2126 7.37239 7.15188 8.28109 7.19298 9.11953C7.22922 9.85891 7.39302 10.5313 7.5387 11.0684C6.9147 12.015 6.54024 13.0932 6.54024 14.1598C6.54024 14.4667 6.5688 14.7661 6.61056 15.061C5.52709 15.0107 4.56126 15.001 3.79453 15.0282C3.23071 15.0481 2.78726 15.0814 2.40352 15.1172C2.40316 15.078 2.4 15.0393 2.4 15C2.4 8.03563 8.03562 2.40001 15 2.40001ZM8.6379 7.87855C9.84846 7.99321 10.7592 8.53381 11.1809 8.90863L11.4621 9.15703L11.809 9.01525C12.7579 8.62453 13.8162 8.40001 15 8.40001C16.1838 8.40001 17.2424 8.62567 18.1195 9.00937L18.4711 9.16405L18.7582 8.90863C19.18 8.53369 20.0923 7.99297 21.3035 7.87855C21.4646 8.14549 21.6045 8.52523 21.5707 9.09961C21.5303 9.78703 21.3464 10.5358 21.2074 10.9805L21.1172 11.2699L21.2965 11.5149C21.8902 12.3244 22.1929 13.2006 22.1414 14.127L22.1402 14.1434V14.1598C22.1402 15.6571 21.6011 16.8554 20.4527 17.7434C19.3044 18.6313 17.4916 19.2 14.9402 19.2C12.3889 19.2 10.5749 18.6313 9.42654 17.7434C8.2782 16.8554 7.74024 15.6571 7.74024 14.1598C7.74024 13.281 8.05758 12.3142 8.64372 11.5149L8.81952 11.2758L8.73516 10.9911C8.59614 10.5183 8.42568 9.75247 8.39178 9.06097C8.36358 8.48575 8.49972 8.12221 8.6379 7.87855ZM5.33086 15.6129C5.75488 15.6183 6.2409 15.6412 6.72774 15.6657C6.77424 15.8527 6.82728 16.0368 6.89178 16.2164C4.90738 16.2583 3.42284 16.4578 2.50781 16.6289C2.46913 16.3287 2.43831 16.026 2.4211 15.7195C3.09733 15.6554 4.0506 15.5965 5.33086 15.6129ZM24.6691 15.6223C25.9485 15.606 26.9014 15.6649 27.5777 15.7289C27.5605 16.031 27.5303 16.3294 27.4922 16.6254C26.5445 16.4515 25.0198 16.252 22.984 16.2199C23.0471 16.0438 23.0998 15.8629 23.1457 15.6797C23.6828 15.6509 24.2068 15.6282 24.6691 15.6223ZM7.14726 16.8117C7.50528 17.5292 8.0169 18.1698 8.69298 18.6926C9.61728 19.4073 10.819 19.9067 12.286 20.1738C12.094 20.371 11.9195 20.5876 11.7644 20.8161L11.7281 20.7844C11.7314 20.7806 11.4298 20.9316 10.9793 20.9719C10.5287 21.0123 9.97296 21 9.48048 21C8.74548 21 8.42172 20.6527 7.90428 20.0203C7.61778 19.6342 7.26846 19.3214 6.92928 19.084C6.582 18.8409 6.28578 18.6693 5.91914 18.6082L5.86992 18.6H5.81953C5.53953 18.6 5.26859 18.6203 5.01563 18.9094C4.88914 19.0539 4.80197 19.3216 4.8586 19.5481C4.91522 19.7746 5.05852 19.9138 5.18672 19.9992C6.00678 20.5459 6.15168 21.6279 6.66564 22.5903C7.14558 23.5466 8.18142 24 9.24024 24H10.8V26.8816C6.58068 25.3923 3.39881 21.7228 2.59922 17.2219C3.51776 17.0489 5.05592 16.8409 7.14726 16.8117ZM22.7297 16.8164C24.8673 16.8347 26.4487 17.0425 27.4019 17.2184C26.6034 21.7209 23.4205 25.392 19.2 26.8816V23.7598C19.2 22.809 18.8878 21.7606 18.3445 20.8863C18.1796 20.6209 17.9855 20.3698 17.7691 20.1445C19.1583 19.8701 20.2994 19.3793 21.1875 18.6926C21.8621 18.171 22.3726 17.5323 22.7297 16.8164ZM14.2195 20.4598H15.9C16.3877 20.4598 16.9082 20.8485 17.325 21.5191C17.7418 22.1899 18 23.0905 18 23.7598V27.2391C17.0384 27.4735 16.0343 27.6 15 27.6C13.9657 27.6 12.9616 27.4735 12 27.2391V23.7598C12 23.1054 12.2807 22.2068 12.7254 21.5332C13.1701 20.8596 13.7318 20.4598 14.2195 20.4598ZM7.38516 21.1687C7.90464 21.7076 8.5335 22.2 9.48048 22.2C9.94794 22.2 10.5315 22.2169 11.086 22.1672C11.0879 22.167 11.0898 22.1662 11.0918 22.1661C11.0188 22.3761 10.9642 22.5873 10.9184 22.8H9.24024C8.50026 22.8 7.97748 22.5327 7.7367 22.0512L7.73202 22.043L7.72854 22.036C7.6299 21.8527 7.50036 21.4864 7.38516 21.1687Z" fill="#3B82F6"/>
</svg>
