<svg width="30" height="30" viewBox="0 0 30 30" fill="none" xmlns="http://www.w3.org/2000/svg">
<path d="M5.4 2.39999C3.75029 2.39999 2.4 3.75028 2.4 5.39999V24.6C2.4 26.2497 3.75029 27.6 5.4 27.6H24.6C26.2497 27.6 27.6 26.2497 27.6 24.6V5.39999C27.6 3.75028 26.2497 2.39999 24.6 2.39999H5.4ZM5.4 3.59999H24.6C25.6011 3.59999 26.4 4.39891 26.4 5.39999V24.6C26.4 25.6011 25.6011 26.4 24.6 26.4H5.4C4.39891 26.4 3.6 25.6011 3.6 24.6V5.39999C3.6 4.39891 4.39891 3.59999 5.4 3.59999ZM8.4 6.60701C7.74288 6.60701 7.15152 6.80345 6.7137 7.17185C6.27582 7.54031 6.00702 8.09069 6.00702 8.68007C6.00702 9.80039 6.97878 10.6738 8.21484 10.7602L8.21718 10.7613C8.2761 10.7814 8.33778 10.7921 8.4 10.793C9.7638 10.793 10.793 9.83765 10.793 8.68007C10.7929 8.66951 10.7924 8.65895 10.7918 8.64845C10.7308 7.50827 9.71424 6.60701 8.4 6.60701ZM8.4 7.79297C9.23532 7.79297 9.5652 8.16599 9.6012 8.69531C9.59388 9.20903 9.27606 9.60701 8.4 9.60701C7.56876 9.60701 7.19298 9.18131 7.19298 8.68007C7.19298 8.42945 7.28442 8.24057 7.47654 8.07887C7.66872 7.91723 7.97712 7.79297 8.4 7.79297ZM6.6 11.4C6.44088 11.4 6.2883 11.4632 6.17574 11.5757C6.06324 11.6883 6 11.8409 6 12V23.4C6 23.5591 6.06324 23.7117 6.17574 23.8243C6.2883 23.9368 6.44088 24 6.6 24H10.2C10.3591 24 10.5117 23.9368 10.6243 23.8243C10.7368 23.7117 10.8 23.5591 10.8 23.4V19.8809V12C10.8 11.8409 10.7368 11.6883 10.6243 11.5757C10.5117 11.4632 10.3591 11.4 10.2 11.4H6.6ZM12 11.4C11.8409 11.4 11.6883 11.4632 11.5757 11.5757C11.4632 11.6883 11.4 11.8409 11.4 12V23.4C11.4 23.5591 11.4632 23.7117 11.5757 23.8243C11.6883 23.9368 11.8409 24 12 24H15.6C15.7591 24 15.9117 23.9368 16.0243 23.8243C16.1368 23.7117 16.2 23.5591 16.2 23.4V17.4C16.2 16.9022 16.3358 16.407 16.575 16.0828C16.8142 15.7586 17.1159 15.5641 17.6894 15.5742C18.2809 15.5844 18.594 15.787 18.8309 16.1051C19.0677 16.4231 19.2 16.9 19.2 17.4V23.4C19.2 23.5591 19.2632 23.7117 19.3757 23.8243C19.4883 23.9368 19.6409 24 19.8 24H23.4C23.5591 24 23.7117 23.9368 23.8243 23.8243C23.9368 23.7117 24 23.5591 24 23.4V16.957C24 15.1801 23.4737 13.7726 22.5715 12.8203C21.6693 11.868 20.4145 11.4 19.0875 11.4C17.8263 11.4 16.8665 11.8229 16.2 12.2543V12C16.2 11.8409 16.1368 11.6883 16.0243 11.5757C15.9117 11.4632 15.7591 11.4 15.6 11.4H12ZM7.2 12.6H9.6V19.8809V22.8H7.2V12.6ZM12.6 12.6H15V13.5363C15.0001 13.6621 15.0396 13.7848 15.1132 13.8868C15.1867 13.9889 15.2905 14.0653 15.4097 14.1052C15.5291 14.1451 15.6579 14.1465 15.7781 14.1092C15.8982 14.0719 16.0036 13.9978 16.0793 13.8973C16.0793 13.8973 17.0215 12.6 19.0875 12.6C20.1395 12.6 21.0416 12.9496 21.7008 13.6453C22.36 14.3411 22.8 15.413 22.8 16.957V22.8H20.4V17.4C20.4 16.7 20.2323 15.9763 19.7941 15.3879C19.356 14.7995 18.6191 14.3899 17.7106 14.3742C16.7973 14.358 16.0485 14.7762 15.6094 15.3715C15.1702 15.9668 15 16.6978 15 17.4V22.8H12.6V12.6Z" fill="#3B82F6"/>
</svg>
